<?xml version="1.0" standalone="no"?>
<!DOCTYPE svg PUBLIC "-//W3C//DTD SVG 20010904//EN"
 "http://www.w3.org/TR/2001/REC-SVG-20010904/DTD/svg10.dtd">
<svg version="1.0" xmlns="http://www.w3.org/2000/svg"
 width="96.000000pt" height="96.000000pt" viewBox="0 0 96.000000 96.000000"
 preserveAspectRatio="xMidYMid meet">
<metadata>
Created by potrace 1.11, written by Peter Selinger 2001-2013
</metadata>
<g transform="translate(0.000000,96.000000) scale(0.100000,-0.100000)"
fill="#000000" stroke="none">
<path d="M416 848 c-14 -19 -14 -24 1 -49 9 -16 15 -30 12 -31 -19 -14 -114
-46 -120 -42 -5 3 -9 13 -9 23 0 22 -19 41 -43 41 -25 0 -87 -62 -87 -87 0
-24 19 -43 41 -43 10 0 20 -4 23 -9 4 -6 -28 -101 -42 -120 -1 -3 -16 3 -33
13 -29 17 -31 17 -50 0 -26 -23 -27 -104 -1 -127 23 -21 36 -21 52 -2 22 26
34 16 57 -46 20 -55 21 -60 5 -65 -61 -19 -68 -55 -19 -102 49 -47 82 -40 101
20 5 16 10 15 65 -5 34 -12 61 -28 61 -34 0 -7 -4 -13 -9 -13 -20 0 -23 -41
-5 -61 14 -16 28 -19 68 -17 l51 3 1 67 c1 71 -4 79 -30 52 -20 -20 -21 -53
-1 -60 32 -13 16 -34 -25 -34 -42 0 -52 14 -24 35 12 8 15 20 10 38 -5 21 -17
30 -59 44 -70 24 -146 100 -170 169 -13 41 -23 53 -44 59 -19 4 -31 2 -39 -9
-20 -28 -34 -18 -34 24 0 41 22 57 34 24 5 -12 13 -14 33 -9 32 8 39 17 54 69
14 53 101 138 159 158 56 18 86 61 58 82 -30 22 -21 36 22 36 43 0 52 -14 23
-36 -29 -21 1 -64 57 -82 62 -21 140 -102 163 -168 13 -41 23 -53 44 -59 19
-4 31 -2 39 9 20 28 34 18 34 -24 0 -42 -14 -52 -34 -24 -24 32 -86 -9 -86
-56 0 -19 32 -10 37 10 6 24 26 26 43 5 30 -37 70 1 70 67 0 32 -6 50 -19 62
-19 17 -21 17 -50 0 -17 -10 -32 -16 -33 -13 -14 19 -46 114 -42 120 3 5 13 9
23 9 22 0 41 19 41 43 0 25 -62 87 -87 87 -24 0 -43 -19 -43 -41 0 -10 -4 -20
-9 -23 -6 -4 -101 28 -120 42 -3 1 3 15 12 31 15 25 15 30 1 49 -12 18 -25 22
-64 22 -39 0 -52 -4 -64 -22z m-148 -106 c-2 -11 3 -26 10 -34 10 -12 10 -18
-2 -27 -10 -9 -16 -8 -25 3 -6 8 -21 12 -31 9 -27 -7 -25 6 7 39 31 32 46 36
41 10z m464 -9 c32 -31 36 -46 10 -41 -11 2 -26 -3 -34 -10 -12 -10 -18 -10
-27 2 -9 10 -8 16 3 25 8 6 12 21 9 31 -7 27 6 25 39 -7z m-454 -481 c-7 -8
-12 -23 -10 -34 5 -26 -10 -22 -41 10 -32 33 -34 46 -7 39 10 -3 25 1 31 9 9
11 15 12 25 3 12 -9 12 -15 2 -27z"/>
<path d="M365 655 c-16 -15 -25 -36 -25 -55 0 -19 9 -40 25 -55 15 -16 36 -25
55 -25 19 0 40 9 55 25 50 49 15 135 -55 135 -19 0 -40 -9 -55 -25z m85 -25
c11 -11 20 -24 20 -30 0 -5 -9 -19 -20 -30 -11 -11 -24 -20 -30 -20 -5 0 -19
9 -30 20 -11 11 -20 25 -20 30 0 6 9 19 20 30 11 11 25 20 30 20 6 0 19 -9 30
-20z"/>
<path d="M400 615 c-17 -20 -5 -45 20 -45 11 0 23 7 26 15 6 15 -11 45 -26 45
-4 0 -13 -7 -20 -15z"/>
<path d="M545 535 c-49 -48 -15 -135 53 -135 40 0 82 41 82 80 0 41 -39 80
-80 80 -19 0 -40 -9 -55 -25z m85 -25 c11 -11 20 -24 20 -30 0 -5 -9 -19 -20
-30 -11 -11 -24 -20 -30 -20 -5 0 -19 9 -30 20 -11 11 -20 25 -20 30 0 6 9 19
20 30 11 11 25 20 30 20 6 0 19 -9 30 -20z"/>
<path d="M580 495 c-17 -20 -5 -45 20 -45 11 0 23 7 26 15 6 15 -11 45 -26 45
-4 0 -13 -7 -20 -15z"/>
<path d="M361 424 c-27 -34 -27 -64 0 -98 29 -37 89 -37 118 0 27 34 27 64 0
98 -16 20 -29 26 -59 26 -30 0 -43 -6 -59 -26z m93 -20 c9 -8 16 -22 16 -29 0
-20 -28 -45 -50 -45 -22 0 -50 25 -50 45 0 20 28 45 50 45 10 0 26 -7 34 -16z"/>
<path d="M393 384 c-3 -8 2 -23 11 -32 15 -15 17 -15 32 0 21 21 11 48 -16 48
-11 0 -23 -7 -27 -16z"/>
<path d="M644 375 c-4 -8 -16 -15 -28 -15 -12 0 -27 -5 -34 -12 -17 -17 -17
-319 0 -336 17 -17 349 -17 366 0 8 8 12 60 12 168 0 162 -4 180 -43 180 -11
0 -26 8 -33 18 -13 16 -15 16 -28 0 -18 -24 -171 -26 -180 -3 -3 8 -10 15 -16
15 -6 0 -13 -7 -16 -15z m2 -62 c13 -17 15 -17 28 0 19 25 163 25 182 0 13
-17 15 -17 29 1 19 24 45 14 45 -19 l0 -25 -165 0 -165 0 0 23 c0 40 23 49 46
20z m282 -175 l-3 -103 -160 0 -160 0 -3 103 -3 102 166 0 166 0 -3 -102z"/>
<path d="M630 180 c0 -27 3 -30 30 -30 27 0 30 3 30 30 0 27 -3 30 -30 30 -27
0 -30 -3 -30 -30z"/>
<path d="M740 180 c0 -25 4 -30 25 -30 21 0 25 5 25 30 0 25 -4 30 -25 30 -21
0 -25 -5 -25 -30z"/>
<path d="M840 180 c0 -27 3 -30 30 -30 27 0 30 3 30 30 0 27 -3 30 -30 30 -27
0 -30 -3 -30 -30z"/>
<path d="M630 90 c0 -27 3 -30 30 -30 27 0 30 3 30 30 0 27 -3 30 -30 30 -27
0 -30 -3 -30 -30z"/>
<path d="M740 90 c0 -25 4 -30 25 -30 21 0 25 5 25 30 0 25 -4 30 -25 30 -21
0 -25 -5 -25 -30z"/>
<path d="M840 90 c0 -27 3 -30 30 -30 27 0 30 3 30 30 0 27 -3 30 -30 30 -27
0 -30 -3 -30 -30z"/>
</g>
</svg>
